# xmcd
#
# Track frame offsets:
#	150
#	23552
#	43924
#	68556
#	95883
#	116458
#	144193
#	157530
#
# Disc length: 2370 seconds
#
# Revision: 3
# Processed by: cddbd v1.5.2PL0 Copyright (c) Steve Scherf et al.
# Submitted via: EasyCDDAExtractor 12.0.4.1
#
DISCID=5a094008
DTITLE=Mark Knopfler - One Take Radio Sessions (live)
DYEAR=2005
DGENRE=Blues
TTITLE0=The Trawlerman's Song
TTITLE1=Back To Tupelo
TTITLE2=Song For Sonny Liston
TTITLE3=Rudiger
TTITLE4=Boom, Like That
TTITLE5=Everybody Pays
TTITLE6=Donegan's Gone
TTITLE7=Stand Up Guy
EXTD=YEAR: 2005
EXTT0=
EXTT1=
EXTT2=
EXTT3=
EXTT4=
EXTT5=
EXTT6=
EXTT7=
PLAYORDER=
